<svg width="2397" height="2740" viewBox="0 0 2397 2740" fill="none" xmlns="http://www.w3.org/2000/svg">
<path d="M1751.45 1236.14L1566 1194.93L1710.24 1400.96V2039.63L2204.76 1627.58V927.104L1978.11 1009.51L1751.45 1236.14Z" fill="#0E0E0E"/>
<path d="M597.553 1236.14L783 1194.93L638.763 1400.96V2039.63L144.237 1627.58V927.104L370.895 1009.51L597.553 1236.14Z" fill="#0E0E0E"/>
<path fill-rule="evenodd" clip-rule="evenodd" d="M700.578 1442.16L865.42 1194.93L968.447 1256.74H1380.55L1483.58 1194.93L1648.42 1442.16V2369.26L1524.79 2554.68L1380.55 2698.9H968.447L824.21 2554.68L700.578 2369.26V1442.16Z" fill="#0E0E0E"/>
<path d="M1710.24 2431.07L1978.1 2163.24V1895.41L1710.24 2122.04V2431.07Z" fill="#0E0E0E"/>
<path d="M638.764 2431.07L370.895 2163.24V1895.41L638.764 2122.04V2431.07Z" fill="#0E0E0E"/>
<path fill-rule="evenodd" clip-rule="evenodd" d="M1442.37 0H1380.55V397.217L1493.96 122.507L1442.37 0ZM1340.69 493.781L1298.13 515.057V0H1215.71V796.528L1340.69 493.781ZM1215.71 976.012L1531.37 211.356L1607.21 391.443L1359.95 1174.33H1215.71V976.012ZM1133.29 799.519V0H1050.87V515.057L1016.56 497.905L1133.29 799.519ZM968.447 373.589V0H906.631L863.501 102.42L968.447 373.589ZM825.232 193.294L1133.29 989.273V1174.33H1009.66L741.789 391.443L825.232 193.294Z" fill="#1B1B1B"/>
<path fill-rule="evenodd" clip-rule="evenodd" d="M123.632 844.694L1009.66 1174.33H1030.26L762.395 391.444L0 329.637L123.632 844.694ZM2245.97 844.694L1359.95 1174.33H1339.34L1586.61 391.444L2369.61 329.637L2245.97 844.694Z" fill="#0E0E0E"/>
<path d="M1648.42 329.637L2081.13 288.432L1792.66 0H1504.18L1648.42 329.637Z" fill="#1B1B1B"/>
<path d="M700.58 329.637L267.869 288.432L556.343 0H844.816L700.58 329.637Z" fill="#1B1B1B"/>
<path d="M321.883 356.199L767.04 390.449L1034.13 1174.77H1006.74L719.1 1068.6L321.883 356.199Z" fill="#1B1B1B"/>
<path d="M2040.87 356.199L1582.02 390.449L1328.62 1174.77L1362.87 1174.09L1629.96 1075.45L2040.87 356.199Z" fill="#1B1B1B"/>
<path d="M828.678 1246.7L862.921 1191.9L979.346 1246.7H1390.26L1479.29 1191.9L1520.38 1246.7L1174.53 1835.8L828.678 1246.7Z" fill="#1B1B1B"/>
<path fill-rule="evenodd" clip-rule="evenodd" d="M823.863 0L1172.57 901.023L1544.53 0H823.863Z" fill="#0E0E0E"/>
</svg>
